<svg width="814" height="766" viewBox="0 0 814 766" fill="none" xmlns="http://www.w3.org/2000/svg">
<path d="M24.368 154.955L0 208.722L255.099 210.955L280 156.013L24.368 154.955Z" fill="#462C43"/>
<path d="M254.332 385.955L230 438.762L588.136 440.955L613 386.993L254.332 385.955Z" fill="#462C43"/>
<path d="M224.685 155.955H284L130.612 505.955H70L224.685 155.955Z" fill="#462C43"/>
<path d="M225.625 451.955L201 505.955L572.582 505.549L594 452.8L225.625 451.955Z" fill="#462C43"/>
<path d="M352.315 154.955H293L446.388 505.955H507L352.315 154.955Z" fill="#E0DCDC"/>
<path d="M416.592 154.955H357L511.105 505.955H572L416.592 154.955Z" fill="#E0DCDC"/>
<path d="M292.408 154.955H352L197.895 505.955H137L292.408 154.955Z" fill="#E0DCDC"/>
<path d="M321 285.955L357 359.955H285L321 285.955Z" fill="#D9D9D9"/>
</svg>
